<?xml version="1.0" encoding="utf-8"?>
<!-- Generator: Adobe Illustrator 16.0.0, SVG Export Plug-In . SVG Version: 6.00 Build 0)  -->
<!DOCTYPE svg PUBLIC "-//W3C//DTD SVG 1.1//EN" "http://www.w3.org/Graphics/SVG/1.1/DTD/svg11.dtd">
<svg version="1.1" id="Layer_1" xmlns="http://www.w3.org/2000/svg" xmlns:xlink="http://www.w3.org/1999/xlink" x="0px" y="0px"
	 width="185.222px" height="67.187px" viewBox="0 0 185.222 67.187" enable-background="new 0 0 185.222 67.187"
	 xml:space="preserve">
<g id="Layer_1_2_">
	
		<rect x="2.462" y="2.521" fill="#010202" stroke="#26292B" stroke-width="3" stroke-miterlimit="10" width="182.759" height="62.435"/>
	<rect x="6.312" y="6.367" fill="#26292B" width="16.397" height="27.323"/>
	<rect x="23.897" y="6.367" fill="#26292B" width="16.397" height="27.323"/>
	<g>
		<path fill="#FFFFFF" d="M14.563,10.299c1.378,0,2.475,0.437,3.292,1.307c0.761,0.83,1.141,1.886,1.141,3.168V17.5
			c0,1.234-0.431,2.291-1.294,3.169c-0.863,0.877-1.906,1.316-3.132,1.316h-1.633v7.078h-2.829V10.299L14.563,10.299L14.563,10.299z
			 M16.25,14.825c0-0.493-0.146-0.89-0.436-1.188s-0.682-0.448-1.174-0.448h-1.702v5.998h1.702c0.451,0,0.833-0.16,1.144-0.479
			c0.311-0.319,0.467-0.701,0.467-1.147V14.825z"/>
	</g>
	<line fill="none" x1="46.144" y1="6.367" x2="46.144" y2="33.688"/>
	<g>
		<path fill="#FFFFFF" d="M32.247,10.299c1.577,0,2.733,0.437,3.467,1.307c0.651,0.761,0.978,1.817,0.978,3.168V17.5
			c0,1.331-0.503,2.452-1.51,3.365l2.096,8.199h-3.051L32.5,21.976c-0.083,0.007-0.168,0.011-0.257,0.011H30.62v7.077h-2.829V10.3
			L32.247,10.299L32.247,10.299z M33.934,14.825c0-1.091-0.537-1.636-1.61-1.636h-1.703v5.998h1.703
			c0.451,0,0.833-0.159,1.144-0.479c0.311-0.319,0.467-0.701,0.467-1.146L33.934,14.825L33.934,14.825z"/>
	</g>
	<line fill="none" x1="66.554" y1="6.367" x2="66.554" y2="33.688"/>
	<rect x="41.483" y="6.367" fill="#26292B" width="16.397" height="27.323"/>
	<g>
		<path fill="#FFFFFF" d="M51.206,29.063h-2.828V10.299h2.828V29.063z"/>
	</g>
	<rect x="59.069" y="6.367" fill="#26292B" width="16.397" height="27.323"/>
	<rect x="76.655" y="6.367" fill="#26292B" width="16.397" height="27.323"/>
	<rect x="94.24" y="6.367" fill="#26292B" width="16.397" height="27.323"/>
	<rect x="111.826" y="6.367" fill="#26292B" width="16.397" height="27.323"/>
	<rect x="129.412" y="6.367" fill="#26292B" width="16.397" height="27.323"/>
	<rect x="146.998" y="6.367" fill="#26292B" width="16.397" height="27.323"/>
	<g>
		<path fill="#FFFFFF" d="M65.378,29.063l-3.344-18.764h2.963l2.346,14.608l2.376-14.608h2.963l-3.405,18.764H65.378z"/>
	</g>
	<g>
		<path fill="#FFFFFF" d="M85.739,29.063H82.91V10.299h2.829V29.063z"/>
	</g>
	<g>
		<path fill="#FFFFFF" d="M106.229,29.063h-7.715V10.299h2.828v15.956h4.886L106.229,29.063L106.229,29.063z"/>
	</g>
	<g>
		<path fill="#FFFFFF" d="M115.951,29.063V10.299h8.056v2.829h-5.227v5.144h3.816v2.829h-3.816v5.134h5.227v2.829L115.951,29.063
			L115.951,29.063z"/>
	</g>
	<rect x="164.427" y="6.367" fill="#26292B" width="16.555" height="27.323"/>
	<g>
		<path fill="#FFFFFF" d="M151.011,28.984V10.22h8.055v2.83h-5.227v5.144h3.816v2.828h-3.816v5.134h5.227v2.829H151.011
			L151.011,28.984z"/>
	</g>
	<g>
		<path fill="#FFFFFF" d="M137.712,29.221c-1.248,0-2.307-0.439-3.178-1.317s-1.307-1.931-1.307-3.158V14.469
			c0-1.24,0.438-2.299,1.316-3.174c0.879-0.875,1.934-1.312,3.169-1.312c1.247,0,2.306,0.438,3.173,1.316s1.302,1.935,1.302,3.168
			v2.14h-2.931v-2.191c0-0.452-0.16-0.838-0.479-1.157c-0.32-0.319-0.705-0.479-1.158-0.479c-0.445,0-0.826,0.16-1.141,0.479
			c-0.316,0.319-0.473,0.705-0.473,1.157v10.298c0,0.452,0.156,0.836,0.473,1.152c0.314,0.315,0.695,0.473,1.141,0.473
			c0.453,0,0.839-0.158,1.158-0.473c0.318-0.315,0.479-0.7,0.479-1.152v-3.693h-1.574v-2.829h4.506v6.554
			c0,1.248-0.439,2.306-1.316,3.173C139.993,28.787,138.939,29.221,137.712,29.221z"/>
	</g>
	<polyline fill="#26292B" points="22.708,34.018 22.708,61.342 6.312,61.342 6.312,34.018 	"/>
	<polyline fill="#26292B" points="40.294,34.018 40.294,61.342 23.897,61.342 23.897,34.018 	"/>
	<polyline fill="#26292B" points="57.88,34.018 57.88,61.342 41.483,61.342 41.483,34.018 	"/>
	<polyline fill="#26292B" points="75.466,34.018 75.466,61.342 59.069,61.342 59.069,34.018 	"/>
	<polyline fill="#26292B" points="93.052,34.018 93.052,61.342 76.655,61.342 76.655,34.018 	"/>
	<polyline fill="#26292B" points="110.638,34.018 110.638,61.342 94.24,61.342 94.24,34.018 	"/>
	<polyline fill="#26292B" points="128.224,34.018 128.224,61.342 111.826,61.342 111.826,34.018 	"/>
	<polyline fill="#26292B" points="145.81,34.018 145.81,61.342 129.412,61.342 129.412,34.018 	"/>
	<polyline fill="#26292B" points="163.396,34.018 163.396,61.342 146.998,61.342 146.998,34.018 	"/>
	<polyline fill="#26292B" points="180.981,34.018 180.981,61.342 164.584,61.342 164.584,34.018 	"/>
	<g>
		<path fill="#FFFFFF" d="M14.563,37.95c1.378,0,2.475,0.437,3.292,1.307c0.761,0.83,1.141,1.887,1.141,3.169v2.726
			c0,1.235-0.431,2.291-1.294,3.17c-0.863,0.877-1.906,1.316-3.132,1.316h-1.633v7.078h-2.829V37.951L14.563,37.95L14.563,37.95z
			 M16.25,42.477c0-0.494-0.146-0.891-0.436-1.188c-0.291-0.299-0.682-0.449-1.174-0.449h-1.702v5.998h1.702
			c0.451,0,0.833-0.159,1.144-0.479c0.311-0.318,0.467-0.701,0.467-1.146V42.477z"/>
	</g>
	<g>
		<path fill="#FFFFFF" d="M32.247,37.95c1.577,0,2.733,0.437,3.467,1.307c0.651,0.762,0.978,1.818,0.978,3.169v2.726
			c0,1.332-0.503,2.453-1.51,3.365l2.096,8.199h-3.051L32.5,49.627c-0.083,0.006-0.168,0.01-0.257,0.01H30.62v7.078h-2.829V37.951
			L32.247,37.95L32.247,37.95z M33.934,42.477c0-1.091-0.537-1.636-1.61-1.636h-1.703v5.997h1.703c0.451,0,0.833-0.158,1.144-0.479
			c0.311-0.318,0.467-0.7,0.467-1.146L33.934,42.477L33.934,42.477z"/>
	</g>
	<g>
		<path fill="#FFFFFF" d="M49.756,37.723c1.248,0,2.31,0.439,3.184,1.318c0.875,0.877,1.312,1.938,1.312,3.178v10.236
			c0,1.248-0.438,2.31-1.317,3.184c-0.878,0.875-1.938,1.313-3.178,1.313c-1.242,0-2.296-0.439-3.164-1.316
			c-0.868-0.879-1.301-1.938-1.301-3.18V42.219c0-1.248,0.438-2.309,1.316-3.184S48.535,37.723,49.756,37.723z M51.299,42.167
			c0-0.451-0.157-0.834-0.469-1.145c-0.312-0.313-0.694-0.469-1.147-0.469c-0.446,0-0.828,0.156-1.146,0.469
			c-0.319,0.311-0.479,0.693-0.479,1.145v10.27c0,0.445,0.16,0.826,0.479,1.142c0.319,0.315,0.701,0.474,1.146,0.474
			c0.453,0,0.835-0.158,1.147-0.474c0.313-0.315,0.469-0.696,0.469-1.142V42.167z"/>
	</g>
	<g>
		<path fill="#FFFFFF" d="M67.058,37.95c1.378,0,2.476,0.437,3.292,1.307c0.761,0.83,1.142,1.887,1.142,3.169v2.726
			c0,1.235-0.432,2.291-1.294,3.17c-0.862,0.877-1.906,1.316-3.132,1.316h-1.633v7.078h-2.828V37.951L67.058,37.95L67.058,37.95z
			 M68.745,42.477c0-0.494-0.146-0.891-0.436-1.188c-0.291-0.299-0.682-0.449-1.174-0.449h-1.703v5.998h1.703
			c0.451,0,0.833-0.159,1.144-0.479c0.311-0.318,0.467-0.701,0.467-1.146L68.745,42.477L68.745,42.477z"/>
	</g>
	<g>
		<path fill="#FFFFFF" d="M80.8,56.713V37.95h8.055v2.83h-5.226v5.143h3.816v2.83h-3.816v5.134h5.226v2.829H80.8V56.713z"/>
	</g>
	<g>
		<path fill="#FFFFFF" d="M102.523,37.95c1.577,0,2.733,0.437,3.468,1.307c0.651,0.762,0.977,1.818,0.977,3.169v2.726
			c0,1.332-0.504,2.453-1.51,3.365l2.096,8.199h-3.051l-1.726-7.088c-0.082,0.006-0.168,0.01-0.257,0.01h-1.623v7.078h-2.828V37.951
			L102.523,37.95L102.523,37.95z M104.211,42.477c0-1.091-0.537-1.636-1.61-1.636h-1.702v5.997h1.702
			c0.451,0,0.832-0.158,1.144-0.479c0.311-0.318,0.467-0.7,0.467-1.146V42.477L104.211,42.477z"/>
	</g>
	<g>
		<path fill="#FFFFFF" d="M118.642,40.78h-3.004v-2.83h8.826v2.83h-2.994v15.936h-2.828V40.78z"/>
	</g>
	<g>
		<path fill="#FFFFFF" d="M151.011,56.637V37.872h8.055v2.83h-5.227v5.144h3.816v2.829h-3.816v5.133h5.227v2.83H151.011
			L151.011,56.637z"/>
	</g>
	<g>
		<path fill="#FFFFFF" d="M177.594,52.054c0.021,1.31-0.319,2.427-1.019,3.354c-0.459,0.631-1.107,1.072-1.944,1.326
			c-0.452,0.145-0.978,0.217-1.573,0.217c-1.111,0-2.031-0.273-2.757-0.822c-0.604-0.453-1.085-1.066-1.44-1.838
			c-0.357-0.771-0.563-1.66-0.617-2.668l2.684-0.186c0.125,1.09,0.416,1.879,0.875,2.365c0.336,0.371,0.725,0.545,1.163,0.525
			c0.616-0.021,1.11-0.324,1.481-0.906c0.191-0.295,0.287-0.709,0.287-1.244c0-0.789-0.354-1.566-1.06-2.336
			c-0.562-0.527-1.402-1.32-2.52-2.375c-0.939-0.906-1.603-1.719-1.986-2.438c-0.419-0.81-0.627-1.688-0.627-2.634
			c0-1.707,0.572-3,1.718-3.879c0.707-0.527,1.584-0.792,2.634-0.792c1.009,0,1.872,0.227,2.593,0.679
			c0.555,0.352,1.004,0.839,1.348,1.467c0.343,0.627,0.553,1.35,0.627,2.165l-2.716,0.494c-0.075-0.769-0.295-1.364-0.657-1.79
			c-0.262-0.314-0.636-0.474-1.121-0.474c-0.516,0-0.909,0.229-1.184,0.688c-0.221,0.371-0.329,0.83-0.329,1.379
			c0,0.857,0.37,1.732,1.11,2.623c0.282,0.336,0.7,0.734,1.256,1.193c0.658,0.549,1.094,0.934,1.307,1.152
			c0.691,0.699,1.23,1.389,1.615,2.068c0.178,0.314,0.322,0.609,0.432,0.885C177.439,50.918,177.579,51.52,177.594,52.054z"/>
	</g>
	<g>
		<path fill="#FFFFFF" d="M138.993,56.793h-2.828V38.03h2.828V56.793z"/>
	</g>
	<g>
		<path fill="#FFFFFF" d="M168.546,18.629v-5.034h2.21v0.76h-1.433v1.38h1.046v0.759h-1.046v1.377h1.433v0.76L168.546,18.629
			L168.546,18.629z"/>
		<path fill="#FFFFFF" d="M173.853,17.379c0.007,0.352-0.087,0.652-0.279,0.899c-0.125,0.17-0.303,0.288-0.533,0.356
			c-0.123,0.038-0.268,0.058-0.431,0.058c-0.304,0-0.558-0.073-0.757-0.22c-0.165-0.122-0.297-0.286-0.395-0.493
			s-0.154-0.446-0.169-0.717l0.735-0.049c0.034,0.292,0.115,0.504,0.24,0.634c0.092,0.1,0.197,0.146,0.318,0.141
			c0.17-0.005,0.306-0.086,0.406-0.243c0.053-0.079,0.08-0.19,0.08-0.333c0-0.211-0.098-0.421-0.291-0.627
			c-0.155-0.142-0.385-0.354-0.691-0.638c-0.258-0.243-0.439-0.461-0.545-0.654c-0.114-0.217-0.172-0.452-0.172-0.707
			c0-0.458,0.156-0.804,0.471-1.041c0.193-0.142,0.436-0.212,0.722-0.212c0.278,0,0.514,0.061,0.712,0.182
			c0.152,0.094,0.275,0.225,0.369,0.393c0.094,0.169,0.15,0.363,0.172,0.581l-0.744,0.133c-0.021-0.206-0.082-0.365-0.181-0.479
			c-0.071-0.084-0.175-0.128-0.308-0.128c-0.141,0-0.25,0.063-0.324,0.186c-0.06,0.1-0.091,0.223-0.091,0.37
			c0,0.229,0.102,0.465,0.306,0.703c0.076,0.091,0.191,0.197,0.344,0.32c0.18,0.147,0.301,0.251,0.357,0.31
			c0.191,0.188,0.339,0.373,0.444,0.555c0.048,0.084,0.089,0.164,0.118,0.237C173.812,17.074,173.849,17.235,173.853,17.379z"/>
		<path fill="#FFFFFF" d="M175.21,14.354h-0.823v-0.76h2.421v0.76h-0.821v4.274h-0.776V14.354z"/>
		<path fill="#FFFFFF" d="M167.245,23.055c0-0.476,0.132-0.84,0.396-1.093c0.226-0.221,0.524-0.331,0.895-0.331
			c0.339,0,0.628,0.124,0.867,0.373c0.239,0.248,0.36,0.539,0.36,0.872c0,0.383-0.078,0.733-0.234,1.051
			c-0.085,0.177-0.283,0.481-0.596,0.912c-0.085,0.118-0.211,0.3-0.378,0.549l-0.142,0.207c-0.09,0.135-0.157,0.241-0.203,0.318
			c-0.021,0.039-0.033,0.062-0.033,0.068l1.523,0.003v0.745h-2.465v-0.695c0-0.017,0.057-0.108,0.172-0.276
			c0.051-0.079,0.109-0.166,0.174-0.259l0.201-0.287c0.118-0.158,0.303-0.412,0.556-0.759c0.237-0.326,0.414-0.621,0.533-0.887
			c0.096-0.217,0.144-0.439,0.144-0.667c0-0.153-0.045-0.282-0.133-0.389c-0.096-0.113-0.219-0.168-0.367-0.168
			c-0.217,0-0.369,0.122-0.459,0.367c-0.031,0.079-0.046,0.175-0.046,0.287v0.192h-0.765V23.055L167.245,23.055z"/>
		<path fill="#FFFFFF" d="M172.86,25.592c0,0.335-0.121,0.619-0.361,0.852c-0.24,0.233-0.529,0.35-0.866,0.35
			c-0.343,0-0.634-0.118-0.872-0.353c-0.238-0.234-0.357-0.518-0.357-0.849v-2.758c0-0.334,0.119-0.619,0.361-0.853
			c0.24-0.233,0.529-0.351,0.868-0.351c0.343,0,0.633,0.118,0.87,0.354c0.238,0.236,0.357,0.519,0.357,0.85V25.592L172.86,25.592z
			 M172.056,22.818c0-0.12-0.043-0.223-0.131-0.308c-0.088-0.086-0.193-0.129-0.318-0.129c-0.121,0-0.226,0.043-0.313,0.129
			c-0.086,0.085-0.13,0.188-0.13,0.308v2.763c0,0.119,0.044,0.222,0.13,0.308c0.087,0.085,0.191,0.128,0.313,0.128
			c0.125,0,0.23-0.042,0.318-0.128s0.131-0.188,0.131-0.308V22.818z"/>
		<path fill="#FFFFFF" d="M174.14,26.729v-3.875h-0.654v-0.53c0.184-0.021,0.361-0.089,0.529-0.206s0.291-0.258,0.365-0.424h0.542
			v5.035H174.14z"/>
		<path fill="#FFFFFF" d="M178.118,25.592c0,0.335-0.121,0.619-0.361,0.852c-0.24,0.233-0.531,0.35-0.871,0.35h-0.063
			c-0.34,0-0.63-0.118-0.867-0.354c-0.238-0.235-0.357-0.519-0.357-0.848v-0.469c0-0.308,0.105-0.576,0.316-0.807
			c0.091-0.099,0.195-0.181,0.316-0.246c-0.209-0.104-0.371-0.279-0.486-0.521c-0.059-0.125-0.087-0.284-0.087-0.475v-0.273
			c0-0.325,0.099-0.595,0.296-0.809c0.219-0.241,0.508-0.362,0.869-0.362h0.063c0.364,0,0.656,0.121,0.874,0.362
			c0.197,0.215,0.297,0.486,0.297,0.809v0.273c0,0.314-0.096,0.576-0.288,0.782c-0.085,0.09-0.178,0.162-0.281,0.214
			c0.229,0.125,0.406,0.317,0.532,0.574c0.066,0.132,0.099,0.291,0.099,0.479V25.592L178.118,25.592z M177.365,23.009
			c-0.004-0.346-0.114-0.563-0.33-0.651c-0.05-0.022-0.11-0.033-0.177-0.033c-0.135,0-0.242,0.037-0.328,0.11
			c-0.069,0.059-0.117,0.135-0.146,0.227c-0.028,0.092-0.039,0.208-0.033,0.348c0.008,0.219,0.043,0.376,0.107,0.472
			c0.08,0.129,0.215,0.192,0.4,0.192s0.322-0.067,0.406-0.204C177.335,23.354,177.368,23.2,177.365,23.009z M177.343,25.226
			c0-0.3-0.07-0.502-0.209-0.604c-0.065-0.048-0.158-0.072-0.277-0.072c-0.204,0-0.344,0.085-0.416,0.257
			c-0.046,0.104-0.068,0.245-0.068,0.42v0.251c0,0.165,0.053,0.299,0.158,0.4c0.086,0.086,0.195,0.132,0.326,0.137
			c0.211-0.011,0.357-0.113,0.441-0.306c0.029-0.064,0.045-0.142,0.045-0.231V25.226L177.343,25.226z"/>
	</g>
	<line fill="none" stroke="#010202" stroke-width="2" stroke-miterlimit="10" x1="4.965" y1="33.69" x2="182.866" y2="33.69"/>
</g>
</svg>
