<?xml version="1.0" encoding="utf-8"?>
<!-- Generator: Adobe Illustrator 16.0.0, SVG Export Plug-In . SVG Version: 6.00 Build 0)  -->
<!DOCTYPE svg PUBLIC "-//W3C//DTD SVG 1.1//EN" "http://www.w3.org/Graphics/SVG/1.1/DTD/svg11.dtd">
<svg version="1.1" id="Layer_1" xmlns="http://www.w3.org/2000/svg" xmlns:xlink="http://www.w3.org/1999/xlink" x="0px" y="0px"
	 width="365.518px" height="124.871px" viewBox="108.168 94.872 365.518 124.871"
	 enable-background="new 108.168 94.872 365.518 124.871" xml:space="preserve">
<g id="Layer_2" display="none">
	<rect x="96" y="53.668" display="inline" width="377.666" height="150"/>
</g>
<g id="Layer_1_1_">
	<rect x="108.168" y="94.872" stroke="#25282B" stroke-width="3" stroke-miterlimit="10" width="365.518" height="124.871"/>
	<rect x="115.866" y="102.564" fill="#25282B" width="32.794" height="54.645"/>
	<rect x="151.038" y="102.564" fill="#25282B" width="32.794" height="54.645"/>
	<g>
		<path fill="#FFFFFF" d="M132.37,110.428c2.757,0,4.95,0.873,6.584,2.613c1.521,1.661,2.282,3.773,2.282,6.337v5.453
			c0,2.469-0.862,4.582-2.588,6.337s-3.813,2.634-6.264,2.634h-3.266v14.155h-5.658v-37.528h8.909V110.428z M135.744,119.481
			c0-0.987-0.291-1.78-0.872-2.376s-1.364-0.896-2.349-0.896h-3.404v11.996h3.404c0.902,0,1.665-0.319,2.287-0.957
			c0.622-0.638,0.934-1.402,0.934-2.294V119.481z"/>
	</g>
	<line fill="none" x1="195.531" y1="102.564" x2="195.531" y2="157.208"/>
	<g>
		<path fill="#FFFFFF" d="M167.737,110.428c3.154,0,5.466,0.873,6.934,2.613c1.303,1.523,1.955,3.636,1.955,6.337v5.453
			c0,2.661-1.006,4.904-3.021,6.729l4.192,16.397h-6.103l-3.45-14.175c-0.165,0.013-0.336,0.021-0.515,0.021h-3.246v14.155h-5.657
			V110.43h8.91V110.428z M171.111,119.481c0-2.181-1.073-3.271-3.22-3.271h-3.405v11.996h3.405c0.902,0,1.665-0.319,2.287-0.957
			s0.934-1.402,0.934-2.294L171.111,119.481L171.111,119.481z"/>
	</g>
	<line fill="none" x1="236.351" y1="102.564" x2="236.351" y2="157.208"/>
	<rect x="186.209" y="102.564" fill="#25282B" width="32.794" height="54.645"/>
	<g>
		<path fill="#FFFFFF" d="M205.655,147.956h-5.656v-37.528h5.656V147.956z"/>
	</g>
	<rect x="221.381" y="102.564" fill="#25282B" width="32.794" height="54.645"/>
	<rect x="256.553" y="102.564" fill="#25282B" width="32.794" height="54.645"/>
	<rect x="291.725" y="102.564" fill="#25282B" width="32.793" height="54.645"/>
	<rect x="326.896" y="102.564" fill="#25282B" width="32.794" height="54.645"/>
	<rect x="362.068" y="102.564" fill="#25282B" width="32.794" height="54.645"/>
	<rect x="397.24" y="102.564" fill="#25282B" width="32.794" height="54.645"/>
	<g>
		<path fill="#FFFFFF" d="M233.999,147.956l-6.688-37.528h5.926l4.691,29.216l4.752-29.216h5.926l-6.81,37.528H233.999z"/>
	</g>
	<g>
		<path fill="#FFFFFF" d="M274.722,147.956h-5.658v-37.528h5.658V147.956z"/>
	</g>
	<g>
		<path fill="#FFFFFF" d="M315.7,147.956H300.27v-37.528h5.657v31.912h9.772L315.7,147.956L315.7,147.956z"/>
	</g>
	<g>
		<path fill="#FFFFFF" d="M335.146,147.956v-37.528h16.11v5.659h-10.452v10.287h7.634v5.658h-7.634V142.3h10.452v5.657
			L335.146,147.956L335.146,147.956z"/>
	</g>
	<rect x="432.098" y="102.564" fill="#25282B" width="33.107" height="54.645"/>
	<g>
		<path fill="#FFFFFF" d="M405.264,147.799v-37.528h16.109v5.659h-10.452v10.287h7.634v5.657h-7.634v10.268h10.452v5.658
			L405.264,147.799L405.264,147.799z"/>
	</g>
	<g>
		<path fill="#FFFFFF" d="M378.668,148.273c-2.497,0-4.615-0.878-6.357-2.634c-1.741-1.755-2.612-3.862-2.612-6.316v-20.555
			c0-2.481,0.877-4.598,2.632-6.347c1.758-1.75,3.869-2.623,6.339-2.623c2.495,0,4.611,0.877,6.347,2.632
			c1.734,1.756,2.603,3.869,2.603,6.337v4.28h-5.862v-4.383c0-0.904-0.318-1.675-0.957-2.313s-1.409-0.957-2.314-0.957
			c-0.892,0-1.652,0.319-2.283,0.957c-0.632,0.638-0.945,1.41-0.945,2.313v20.596c0,0.904,0.313,1.673,0.945,2.304
			c0.631,0.631,1.393,0.947,2.283,0.947c0.905,0,1.677-0.316,2.314-0.947c0.639-0.63,0.957-1.399,0.957-2.304v-7.387h-3.147v-5.657
			h9.011v13.106c0,2.496-0.878,4.612-2.633,6.347C383.229,147.405,381.122,148.273,378.668,148.273z"/>
	</g>
	<polyline fill="#25282B" points="148.66,157.867 148.66,212.513 115.866,212.513 115.866,157.867 	"/>
	<polyline fill="#25282B" points="183.832,157.867 183.832,212.513 151.038,212.513 151.038,157.867 	"/>
	<polyline fill="#25282B" points="219.004,157.867 219.004,212.513 186.209,212.513 186.209,157.867 	"/>
	<polyline fill="#25282B" points="254.176,157.867 254.176,212.513 221.381,212.513 221.381,157.867 	"/>
	<polyline fill="#25282B" points="289.348,157.867 289.348,212.513 256.553,212.513 256.553,157.867 	"/>
	<polyline fill="#25282B" points="324.519,157.867 324.519,212.513 291.725,212.513 291.725,157.867 	"/>
	<polyline fill="#25282B" points="359.69,157.867 359.69,212.513 326.896,212.513 326.896,157.867 	"/>
	<polyline fill="#25282B" points="394.862,157.867 394.862,212.513 362.068,212.513 362.068,157.867 	"/>
	<polyline fill="#25282B" points="430.033,157.867 430.033,212.513 397.24,212.513 397.24,157.867 	"/>
	<polyline fill="#25282B" points="465.205,157.867 465.205,212.513 432.411,212.513 432.411,157.867 	"/>
	<g>
		<path fill="#FFFFFF" d="M132.37,165.731c2.757,0,4.95,0.872,6.584,2.613c1.521,1.66,2.282,3.773,2.282,6.337v5.452
			c0,2.47-0.862,4.582-2.588,6.338c-1.726,1.755-3.813,2.634-6.264,2.634h-3.266v14.155h-5.658v-37.528L132.37,165.731
			L132.37,165.731z M135.744,174.784c0-0.988-0.291-1.779-0.872-2.375c-0.581-0.597-1.364-0.896-2.349-0.896h-3.404v11.996h3.404
			c0.902,0,1.665-0.319,2.287-0.957c0.622-0.639,0.934-1.402,0.934-2.295V174.784z"/>
	</g>
	<g>
		<path fill="#FFFFFF" d="M167.737,165.731c3.154,0,5.466,0.872,6.934,2.613c1.303,1.523,1.955,3.636,1.955,6.337v5.452
			c0,2.662-1.006,4.904-3.021,6.73l4.192,16.396h-6.103l-3.45-14.176c-0.165,0.014-0.336,0.021-0.515,0.021h-3.246v14.155h-5.657
			v-37.528L167.737,165.731L167.737,165.731z M171.111,174.784c0-2.181-1.073-3.271-3.22-3.271h-3.405v11.995h3.405
			c0.902,0,1.665-0.318,2.287-0.957c0.622-0.637,0.934-1.401,0.934-2.293L171.111,174.784L171.111,174.784z"/>
	</g>
	<g>
		<path fill="#FFFFFF" d="M202.756,165.278c2.496,0,4.619,0.878,6.368,2.634c1.749,1.756,2.623,3.875,2.623,6.358v20.471
			c0,2.496-0.877,4.62-2.634,6.368c-1.756,1.75-3.875,2.624-6.356,2.624c-2.483,0-4.592-0.878-6.327-2.634
			c-1.735-1.755-2.603-3.875-2.603-6.358V174.27c0-2.496,0.877-4.619,2.633-6.368S200.314,165.278,202.756,165.278z
			 M205.842,174.165c0-0.904-0.313-1.668-0.938-2.291c-0.624-0.625-1.388-0.936-2.294-0.936c-0.892,0-1.655,0.313-2.293,0.936
			s-0.957,1.389-0.957,2.291v20.539c0,0.891,0.319,1.651,0.957,2.282c0.639,0.63,1.402,0.946,2.293,0.946
			c0.906,0,1.67-0.314,2.294-0.946c0.625-0.63,0.938-1.392,0.938-2.282V174.165z"/>
	</g>
	<g>
		<path fill="#FFFFFF" d="M237.359,165.731c2.756,0,4.951,0.872,6.584,2.613c1.522,1.66,2.283,3.773,2.283,6.337v5.452
			c0,2.47-0.863,4.582-2.588,6.338c-1.725,1.755-3.813,2.634-6.264,2.634h-3.267v14.155h-5.656v-37.528L237.359,165.731
			L237.359,165.731z M240.733,174.784c0-0.988-0.291-1.779-0.872-2.375c-0.581-0.597-1.363-0.896-2.348-0.896h-3.405v11.996h3.405
			c0.902,0,1.665-0.319,2.287-0.957c0.622-0.639,0.934-1.402,0.934-2.295L240.733,174.784L240.733,174.784z"/>
	</g>
	<g>
		<path fill="#FFFFFF" d="M264.843,203.258v-37.527h16.109v5.659H270.5v10.286h7.633v5.658H270.5v10.269h10.452v5.657h-16.109
			V203.258z"/>
	</g>
	<g>
		<path fill="#FFFFFF" d="M308.29,165.731c3.154,0,5.467,0.872,6.936,2.613c1.303,1.523,1.954,3.636,1.954,6.337v5.452
			c0,2.662-1.008,4.904-3.021,6.73l4.191,16.396h-6.103l-3.45-14.176c-0.164,0.014-0.336,0.021-0.514,0.021h-3.246v14.155h-5.656
			v-37.528L308.29,165.731L308.29,165.731z M311.665,174.784c0-2.181-1.073-3.271-3.221-3.271h-3.405v11.995h3.405
			c0.902,0,1.664-0.318,2.287-0.957c0.621-0.637,0.934-1.401,0.934-2.293V174.784L311.665,174.784z"/>
	</g>
	<g>
		<path fill="#FFFFFF" d="M340.527,171.39h-6.008v-5.659h17.652v5.659h-5.987v31.87h-5.657V171.39z"/>
	</g>
	<g>
		<path fill="#FFFFFF" d="M405.264,203.103v-37.528h16.109v5.659h-10.452v10.287h7.634v5.657h-7.634v10.268h10.452v5.658
			L405.264,203.103L405.264,203.103z"/>
	</g>
	<g>
		<path fill="#FFFFFF" d="M458.431,193.939c0.041,2.62-0.638,4.854-2.037,6.708c-0.919,1.262-2.216,2.146-3.889,2.654
			c-0.905,0.287-1.954,0.433-3.147,0.433c-2.222,0-4.061-0.548-5.513-1.646c-1.207-0.906-2.169-2.131-2.882-3.674
			s-1.125-3.322-1.234-5.338l5.369-0.371c0.248,2.182,0.831,3.758,1.75,4.731c0.672,0.741,1.447,1.091,2.325,1.05
			c1.233-0.042,2.221-0.646,2.962-1.811c0.385-0.59,0.576-1.42,0.576-2.49c0-1.576-0.707-3.133-2.12-4.67
			c-1.123-1.057-2.805-2.641-5.039-4.752c-1.879-1.811-3.204-3.436-3.973-4.876c-0.837-1.619-1.254-3.375-1.254-5.269
			c0-3.414,1.145-6,3.436-7.755c1.413-1.056,3.169-1.585,5.268-1.585c2.018,0,3.744,0.453,5.186,1.358
			c1.11,0.701,2.009,1.677,2.695,2.932c0.686,1.256,1.104,2.699,1.255,4.331l-5.433,0.988c-0.149-1.536-0.59-2.729-1.314-3.58
			c-0.523-0.63-1.271-0.947-2.243-0.947c-1.03,0-1.817,0.46-2.367,1.378c-0.439,0.741-0.657,1.66-0.657,2.756
			c0,1.715,0.74,3.465,2.222,5.248c0.563,0.672,1.399,1.469,2.512,2.387c1.315,1.098,2.188,1.865,2.612,2.304
			c1.384,1.399,2.46,2.778,3.229,4.137c0.356,0.63,0.645,1.22,0.864,1.769C458.122,191.668,458.403,192.87,458.431,193.939z"/>
	</g>
	<g>
		<path fill="#FFFFFF" d="M381.231,203.417h-5.657v-37.527h5.657V203.417z"/>
	</g>
	<g>
		<path fill="#FFFFFF" d="M440.336,127.089V117.02h4.419v1.519h-2.866v2.76h2.093v1.518h-2.093v2.754h2.866v1.519L440.336,127.089
			L440.336,127.089z"/>
		<path fill="#FFFFFF" d="M450.948,124.589c0.014,0.703-0.174,1.303-0.558,1.798c-0.252,0.34-0.607,0.577-1.066,0.713
			c-0.248,0.077-0.536,0.116-0.862,0.116c-0.608,0-1.114-0.147-1.513-0.441c-0.331-0.243-0.595-0.572-0.79-0.986
			s-0.309-0.891-0.338-1.433l1.472-0.098c0.067,0.584,0.229,1.008,0.479,1.268c0.185,0.199,0.396,0.293,0.637,0.282
			c0.339-0.011,0.611-0.173,0.813-0.486c0.104-0.158,0.158-0.38,0.158-0.667c0-0.423-0.194-0.842-0.581-1.254
			c-0.311-0.283-0.771-0.708-1.384-1.276c-0.516-0.485-0.879-0.921-1.088-1.308c-0.229-0.434-0.345-0.905-0.345-1.413
			c0-0.916,0.313-1.609,0.941-2.081c0.388-0.283,0.87-0.425,1.443-0.425c0.556,0,1.027,0.121,1.423,0.364
			c0.305,0.188,0.552,0.45,0.738,0.786c0.189,0.337,0.303,0.725,0.345,1.162l-1.489,0.265c-0.042-0.411-0.162-0.731-0.36-0.959
			c-0.143-0.169-0.349-0.255-0.616-0.255c-0.28,0-0.498,0.124-0.646,0.37c-0.12,0.199-0.183,0.445-0.183,0.74
			c0,0.46,0.203,0.93,0.61,1.407c0.153,0.182,0.383,0.395,0.688,0.64c0.361,0.296,0.602,0.502,0.717,0.619
			c0.381,0.375,0.677,0.746,0.888,1.11c0.097,0.169,0.177,0.328,0.236,0.475C450.865,123.979,450.942,124.302,450.948,124.589z"/>
		<path fill="#FFFFFF" d="M453.663,118.539h-1.646v-1.519h4.841v1.519h-1.642v8.55h-1.553V118.539z"/>
		<path fill="#FFFFFF" d="M437.735,135.941c0-0.952,0.263-1.681,0.79-2.186c0.451-0.442,1.048-0.663,1.789-0.663
			c0.677,0,1.256,0.249,1.734,0.746c0.479,0.497,0.72,1.078,0.72,1.744c0,0.766-0.155,1.467-0.469,2.103
			c-0.169,0.354-0.565,0.962-1.19,1.823c-0.17,0.236-0.421,0.601-0.756,1.098l-0.282,0.413c-0.181,0.27-0.315,0.481-0.406,0.636
			c-0.045,0.077-0.066,0.124-0.066,0.137l3.047,0.006v1.49h-4.931v-1.391c0-0.033,0.112-0.217,0.343-0.552
			c0.102-0.158,0.219-0.332,0.35-0.519l0.401-0.574c0.236-0.316,0.606-0.823,1.111-1.517c0.474-0.653,0.828-1.243,1.066-1.773
			c0.191-0.434,0.287-0.879,0.287-1.335c0-0.306-0.089-0.564-0.265-0.778c-0.191-0.225-0.438-0.337-0.736-0.337
			c-0.432,0-0.738,0.245-0.918,0.735c-0.061,0.158-0.091,0.35-0.091,0.574v0.385h-1.528V135.941L437.735,135.941z"/>
		<path fill="#FFFFFF" d="M448.965,141.014c0,0.67-0.242,1.238-0.725,1.703c-0.48,0.466-1.058,0.699-1.731,0.699
			c-0.686,0-1.267-0.235-1.743-0.704c-0.479-0.47-0.717-1.035-0.717-1.698v-5.515c0-0.668,0.24-1.238,0.723-1.705
			s1.061-0.702,1.737-0.702c0.685,0,1.266,0.237,1.741,0.707c0.477,0.472,0.715,1.038,0.715,1.7V141.014L448.965,141.014z
			 M447.355,135.467c0-0.239-0.087-0.445-0.263-0.616c-0.174-0.172-0.386-0.258-0.635-0.258c-0.243,0-0.452,0.086-0.627,0.258
			c-0.172,0.17-0.259,0.376-0.259,0.616v5.525c0,0.239,0.087,0.444,0.259,0.616c0.175,0.171,0.384,0.256,0.627,0.256
			c0.249,0,0.461-0.085,0.635-0.256c0.176-0.171,0.263-0.376,0.263-0.616V135.467z"/>
		<path fill="#FFFFFF" d="M451.524,143.289v-7.75h-1.309v-1.06c0.367-0.041,0.722-0.178,1.058-0.411
			c0.337-0.234,0.581-0.516,0.73-0.848h1.084v10.069H451.524z"/>
		<path fill="#FFFFFF" d="M459.479,141.014c0,0.67-0.24,1.238-0.721,1.703c-0.482,0.466-1.063,0.699-1.744,0.699h-0.123
			c-0.682,0-1.261-0.235-1.735-0.707c-0.477-0.471-0.715-1.037-0.715-1.695v-0.938c0-0.615,0.21-1.152,0.632-1.612
			c0.183-0.199,0.393-0.362,0.635-0.492c-0.42-0.208-0.742-0.557-0.973-1.042c-0.117-0.25-0.175-0.567-0.175-0.95v-0.547
			c0-0.65,0.196-1.19,0.592-1.617c0.438-0.482,1.017-0.724,1.739-0.724h0.123c0.729,0,1.313,0.242,1.749,0.724
			c0.395,0.431,0.594,0.971,0.594,1.617v0.547c0,0.629-0.191,1.151-0.577,1.563c-0.169,0.18-0.355,0.324-0.563,0.429
			c0.458,0.251,0.813,0.634,1.065,1.148c0.133,0.263,0.196,0.581,0.196,0.956V141.014L459.479,141.014z M457.974,135.848
			c-0.008-0.692-0.229-1.126-0.66-1.303c-0.101-0.044-0.22-0.066-0.354-0.066c-0.269,0-0.484,0.074-0.654,0.221
			c-0.14,0.118-0.236,0.269-0.293,0.453c-0.058,0.184-0.078,0.416-0.068,0.696c0.016,0.438,0.087,0.753,0.216,0.944
			c0.16,0.258,0.429,0.385,0.801,0.385s0.644-0.135,0.813-0.407C457.914,136.537,457.98,136.23,457.974,135.848z M457.93,140.281
			c0-0.6-0.142-1.003-0.419-1.209c-0.131-0.096-0.315-0.145-0.554-0.145c-0.409,0-0.688,0.17-0.834,0.514
			c-0.091,0.208-0.136,0.489-0.136,0.839v0.502c0,0.331,0.104,0.599,0.315,0.801c0.173,0.173,0.392,0.265,0.653,0.275
			c0.423-0.022,0.716-0.226,0.882-0.612c0.06-0.129,0.091-0.283,0.091-0.463L457.93,140.281L457.93,140.281z"/>
	</g>
	<line fill="none" stroke="#000000" stroke-width="2" stroke-miterlimit="10" x1="113.174" y1="157.21" x2="468.975" y2="157.21"/>
</g>
</svg>
